<?xml version="1.0" encoding="UTF-8"?>
<svg xmlns="http://www.w3.org/2000/svg" xmlns:xlink="http://www.w3.org/1999/xlink" width="188" height="69.333333" viewBox="0 0 188 69.333333" version="1.1">
<g id="surface1">
<path style="fill-rule:nonzero;fill:rgb(69.803923%,85.09804%,100%);fill-opacity:1;stroke-width:1;stroke-linecap:round;stroke-linejoin:round;stroke:rgb(0%,0%,0%);stroke-opacity:1;stroke-miterlimit:10;" d="M 23.657227 33.342773 C 26.780273 36.46875 26.780273 41.53125 23.657227 44.657227 C 20.53125 47.780273 15.46875 47.780273 12.342773 44.657227 C 9.219727 41.53125 9.219727 36.46875 12.342773 33.342773 C 15.46875 30.219727 20.53125 30.219727 23.657227 33.342773 " transform="matrix(1.333333,0,0,1.333333,-12,-36)"/>
<path style=" stroke:none;fill-rule:nonzero;fill:rgb(0%,0%,0%);fill-opacity:1;" d="M 12.25 14.417969 C 12.082031 13.582031 11.9375 13.375 11.644531 13.375 C 11.355469 13.375 10.957031 13.457031 10.230469 13.730469 L 10.105469 13.769531 L 10.144531 13.957031 L 10.355469 13.894531 C 10.582031 13.832031 10.730469 13.8125 10.8125 13.8125 C 11.125 13.8125 11.207031 13.917969 11.375 14.625 L 11.707031 16.125 L 10.730469 17.519531 C 10.480469 17.875 10.25 18.105469 10.105469 18.105469 C 10.042969 18.105469 9.917969 18.0625 9.792969 18 C 9.644531 17.917969 9.519531 17.855469 9.417969 17.855469 C 9.1875 17.855469 9 18.0625 9 18.292969 C 9 18.605469 9.230469 18.792969 9.605469 18.792969 C 9.980469 18.792969 10.230469 18.6875 10.75 17.980469 L 11.8125 16.5625 L 12.144531 17.980469 C 12.292969 18.582031 12.480469 18.792969 12.855469 18.792969 C 13.3125 18.792969 13.625 18.519531 14.332031 17.4375 L 14.144531 17.3125 C 14.042969 17.4375 14 17.519531 13.894531 17.667969 C 13.625 18.019531 13.480469 18.144531 13.332031 18.144531 C 13.167969 18.144531 13.0625 17.980469 12.980469 17.644531 L 12.582031 16.042969 C 12.519531 15.75 12.480469 15.582031 12.480469 15.5 C 13.019531 14.582031 13.457031 14.042969 13.667969 14.042969 C 13.957031 14.042969 14.0625 14.25 14.292969 14.25 C 14.519531 14.25 14.6875 14.0625 14.6875 13.8125 C 14.6875 13.5625 14.5 13.375 14.207031 13.375 C 13.6875 13.375 13.230469 13.8125 12.394531 15.082031 Z M 12.25 14.417969 "/>
<path style="fill-rule:nonzero;fill:rgb(69.803923%,85.09804%,100%);fill-opacity:1;stroke-width:1;stroke-linecap:round;stroke-linejoin:round;stroke:rgb(0%,0%,0%);stroke-opacity:1;stroke-miterlimit:10;" d="M 23.657227 62.34375 C 26.780273 65.469727 26.780273 70.532227 23.657227 73.655273 C 20.53125 76.78125 15.46875 76.78125 12.342773 73.655273 C 9.219727 70.532227 9.219727 65.469727 12.342773 62.34375 C 15.46875 59.217773 20.53125 59.217773 23.657227 62.34375 " transform="matrix(1.333333,0,0,1.333333,-12,-36)"/>
<path style=" stroke:none;fill-rule:nonzero;fill:rgb(0%,0%,0%);fill-opacity:1;" d="M 12.25 55.105469 C 12.042969 54.042969 11.417969 52.042969 11.230469 52.042969 L 11.1875 52.042969 C 10.542969 52.144531 10.144531 52.207031 9.894531 52.25 C 9.769531 52.292969 9.644531 52.3125 9.519531 52.332031 L 9.519531 52.542969 C 9.644531 52.5 9.75 52.480469 9.875 52.480469 C 10.375 52.480469 10.582031 52.667969 10.8125 53.25 C 11.125 54.0625 11.792969 56.75 11.792969 57.230469 C 11.792969 57.375 11.75 57.519531 11.667969 57.667969 C 11.582031 57.8125 11.042969 58.519531 10.8125 58.75 C 10.542969 59.042969 10.394531 59.144531 10.25 59.144531 C 9.9375 59.144531 9.9375 58.8125 9.519531 58.8125 C 9.25 58.8125 9.042969 59.019531 9.042969 59.292969 C 9.042969 59.605469 9.292969 59.8125 9.667969 59.8125 C 10.332031 59.8125 11.625 58.417969 12.875 56.355469 C 13.875 54.707031 14.4375 53.375 14.4375 52.707031 C 14.4375 52.332031 14.1875 52.042969 13.8125 52.042969 C 13.542969 52.042969 13.332031 52.230469 13.332031 52.480469 C 13.332031 52.6875 13.417969 52.792969 13.644531 52.957031 C 13.875 53.105469 13.957031 53.167969 13.957031 53.332031 C 13.957031 53.875 13.519531 54.730469 12.5 56.417969 Z M 12.25 55.105469 "/>
<path style="fill-rule:nonzero;fill:rgb(69.803923%,85.09804%,100%);fill-opacity:1;stroke-width:1;stroke-linecap:round;stroke-linejoin:round;stroke:rgb(0%,0%,0%);stroke-opacity:1;stroke-miterlimit:10;" d="M 64.655273 33.342773 C 67.78125 36.46875 67.78125 41.53125 64.655273 44.657227 C 61.532227 47.780273 56.469727 47.780273 53.34375 44.657227 C 50.217773 41.53125 50.217773 36.46875 53.34375 33.342773 C 56.469727 30.219727 61.532227 30.219727 64.655273 33.342773 " transform="matrix(1.333333,0,0,1.333333,-12,-36)"/>
<path style=" stroke:none;fill-rule:nonzero;fill:rgb(0%,0%,0%);fill-opacity:1;" d="M 69.207031 17.230469 C 68.582031 18.042969 68.394531 18.207031 68.207031 18.207031 C 68.121094 18.207031 68.058594 18.144531 68.058594 18 C 68.058594 17.855469 68.226562 17.292969 68.289062 17.0625 L 69.246094 13.480469 L 68.351562 13.480469 C 67.769531 15.082031 67.601562 15.542969 67.039062 16.394531 C 66.289062 17.519531 65.746094 18.167969 65.332031 18.167969 C 65.144531 18.167969 65.101562 18.042969 65.101562 17.855469 C 65.101562 17.8125 65.121094 17.707031 65.121094 17.667969 L 66.207031 13.417969 L 66.144531 13.375 C 65.457031 13.519531 65.039062 13.625 64.351562 13.707031 L 64.351562 13.875 C 64.808594 13.875 64.832031 13.875 64.957031 13.9375 C 65.019531 13.980469 65.082031 14.0625 65.082031 14.144531 C 65.082031 14.25 65.019531 14.5625 64.914062 14.957031 L 64.496094 16.625 C 64.269531 17.5 64.164062 17.9375 64.164062 18.167969 C 64.164062 18.605469 64.394531 18.792969 64.808594 18.792969 C 65.664062 18.792969 66.246094 18.167969 67.664062 15.832031 C 67.289062 17.125 67.121094 17.9375 67.121094 18.207031 C 67.121094 18.5625 67.351562 18.769531 67.707031 18.769531 C 68.269531 18.769531 68.582031 18.542969 69.371094 17.355469 Z M 69.207031 17.230469 "/>
<path style="fill-rule:nonzero;fill:rgb(69.803923%,85.09804%,100%);fill-opacity:1;stroke-width:1;stroke-linecap:round;stroke-linejoin:round;stroke:rgb(0%,0%,0%);stroke-opacity:1;stroke-miterlimit:10;" d="M 64.655273 62.34375 C 67.78125 65.469727 67.78125 70.532227 64.655273 73.655273 C 61.532227 76.78125 56.469727 76.78125 53.34375 73.655273 C 50.217773 70.532227 50.217773 65.469727 53.34375 62.34375 C 56.469727 59.217773 61.532227 59.217773 64.655273 62.34375 " transform="matrix(1.333333,0,0,1.333333,-12,-36)"/>
<path style=" stroke:none;fill-rule:nonzero;fill:rgb(0%,0%,0%);fill-opacity:1;" d="M 66.480469 56.5 C 66.417969 54.875 66.332031 54.207031 66.1875 53.417969 C 65.9375 52.105469 65.9375 52.042969 65.832031 52.042969 C 65.769531 52.042969 65.6875 52.0625 65.582031 52.082031 C 65.207031 52.167969 64.769531 52.25 64.25 52.332031 L 64.25 52.5 C 64.375 52.480469 64.5 52.480469 64.605469 52.480469 C 65.0625 52.480469 65.1875 52.6875 65.355469 53.605469 C 65.5 54.519531 65.625 56.105469 65.625 56.9375 L 65.625 57.230469 C 65.625 57.4375 65.667969 57.542969 65.75 57.542969 C 65.9375 57.542969 66.269531 57.144531 66.9375 56.4375 C 67.144531 56.207031 67.8125 55.457031 68.355469 54.605469 C 68.769531 53.957031 69.105469 53.269531 69.105469 52.75 C 69.105469 52.417969 68.832031 52.042969 68.4375 52.042969 C 68.1875 52.042969 67.980469 52.1875 67.980469 52.457031 C 67.980469 52.644531 68.0625 52.792969 68.292969 52.980469 C 68.4375 53.125 68.5 53.207031 68.5 53.332031 C 68.5 53.894531 67.730469 55.230469 66.855469 56.105469 Z M 66.480469 56.5 "/>
<path style="fill-rule:nonzero;fill:rgb(69.803923%,85.09804%,100%);fill-opacity:1;stroke-width:1;stroke-linecap:round;stroke-linejoin:round;stroke:rgb(0%,0%,0%);stroke-opacity:1;stroke-miterlimit:10;" d="M 105.65625 33.342773 C 108.782227 36.46875 108.782227 41.53125 105.65625 44.657227 C 102.530273 47.780273 97.467773 47.780273 94.344727 44.657227 C 91.21875 41.53125 91.21875 36.46875 94.344727 33.342773 C 97.467773 30.219727 102.530273 30.219727 105.65625 33.342773 " transform="matrix(1.333333,0,0,1.333333,-12,-36)"/>
<path style=" stroke:none;fill-rule:nonzero;fill:rgb(0%,0%,0%);fill-opacity:1;" d="M 123.886719 17.332031 L 123.554688 17.6875 C 123.199219 18.082031 123.03125 18.167969 122.929688 18.167969 C 122.84375 18.167969 122.761719 18.105469 122.761719 18.019531 C 122.761719 17.769531 123.261719 15.707031 123.824219 13.667969 C 123.867188 13.542969 123.886719 13.519531 123.90625 13.417969 L 123.824219 13.375 L 123.09375 13.457031 L 123.054688 13.5 L 122.929688 14.0625 C 122.824219 13.625 122.46875 13.375 121.96875 13.375 C 120.367188 13.375 118.53125 15.542969 118.53125 17.417969 C 118.53125 18.3125 119.054688 18.792969 119.71875 18.792969 C 120.574219 18.792969 121.261719 18.269531 122.15625 16.917969 C 121.90625 17.894531 121.886719 18 121.886719 18.292969 C 121.886719 18.644531 122.03125 18.792969 122.367188 18.792969 C 122.84375 18.792969 123.136719 18.5625 124.03125 17.457031 Z M 122.699219 14.332031 C 122.699219 15.1875 122.34375 16.207031 121.78125 17.042969 C 121.429688 17.542969 120.867188 18.207031 120.261719 18.207031 C 119.824219 18.207031 119.53125 17.980469 119.53125 17.3125 C 119.53125 16.5625 119.949219 15.5 120.46875 14.75 C 120.96875 14.019531 121.492188 13.644531 122.03125 13.644531 C 122.449219 13.644531 122.699219 13.917969 122.699219 14.332031 Z M 122.699219 14.332031 "/>
<path style="fill-rule:nonzero;fill:rgb(69.803923%,85.09804%,100%);fill-opacity:1;stroke-width:1;stroke-linecap:round;stroke-linejoin:round;stroke:rgb(0%,0%,0%);stroke-opacity:1;stroke-miterlimit:10;" d="M 105.65625 62.34375 C 108.782227 65.469727 108.782227 70.532227 105.65625 73.655273 C 102.530273 76.78125 97.467773 76.78125 94.344727 73.655273 C 91.21875 70.532227 91.21875 65.469727 94.344727 62.34375 C 97.467773 59.217773 102.530273 59.217773 105.65625 62.34375 " transform="matrix(1.333333,0,0,1.333333,-12,-36)"/>
<path style=" stroke:none;fill-rule:nonzero;fill:rgb(0%,0%,0%);fill-opacity:1;" d="M 120.289062 53.855469 L 121.289062 50.1875 L 121.539062 49.1875 L 121.476562 49.144531 C 120.894531 49.25 120.457031 49.3125 119.644531 49.417969 L 119.644531 49.625 C 120.351562 49.644531 120.414062 49.644531 120.414062 49.917969 C 120.414062 50.019531 120.371094 50.1875 120.308594 50.480469 L 118.601562 56.75 L 118.601562 56.832031 C 118.601562 57.1875 119.476562 57.457031 120.164062 57.457031 C 122.019531 57.457031 123.996094 55.375 123.996094 53.480469 C 123.996094 52.5625 123.414062 52.042969 122.621094 52.042969 C 121.769531 52.042969 121.121094 52.5 120.289062 53.855469 Z M 122.976562 53.667969 C 122.976562 54.542969 122.394531 55.730469 121.664062 56.480469 C 121.226562 56.9375 120.707031 57.1875 120.183594 57.1875 C 119.808594 57.1875 119.644531 57.0625 119.644531 56.792969 C 119.644531 56.0625 119.976562 54.894531 120.496094 54 C 121.019531 53.125 121.582031 52.625 122.144531 52.625 C 122.683594 52.625 122.976562 52.9375 122.976562 53.667969 Z M 122.976562 53.667969 "/>
<path style="fill-rule:nonzero;fill:rgb(69.803923%,85.09804%,100%);fill-opacity:1;stroke-width:1;stroke-linecap:round;stroke-linejoin:round;stroke:rgb(0%,0%,0%);stroke-opacity:1;stroke-miterlimit:10;" d="M 146.657227 62.34375 C 149.780273 65.469727 149.780273 70.532227 146.657227 73.655273 C 143.53125 76.78125 138.46875 76.78125 135.342773 73.655273 C 132.219727 70.532227 132.219727 65.469727 135.342773 62.34375 C 138.46875 59.217773 143.53125 59.217773 146.657227 62.34375 " transform="matrix(1.333333,0,0,1.333333,-12,-36)"/>
<path style=" stroke:none;fill-rule:nonzero;fill:rgb(0%,0%,0%);fill-opacity:1;" d="M 174.828125 52.1875 L 174.746094 52.582031 L 175.828125 52.582031 L 174.765625 57.625 C 174.496094 58.917969 174.121094 59.5625 173.601562 59.5625 C 173.476562 59.5625 173.371094 59.480469 173.371094 59.375 C 173.371094 59.25 173.476562 59.1875 173.476562 59.019531 C 173.476562 58.769531 173.289062 58.582031 173.015625 58.582031 C 172.765625 58.582031 172.558594 58.8125 172.558594 59.082031 C 172.558594 59.5 172.976562 59.8125 173.515625 59.8125 C 174.601562 59.8125 175.414062 58.644531 175.914062 56.417969 L 176.789062 52.582031 L 178.078125 52.582031 L 178.140625 52.1875 L 176.871094 52.1875 C 177.203125 50.292969 177.664062 49.457031 178.328125 49.457031 C 178.496094 49.457031 178.578125 49.519531 178.578125 49.625 C 178.578125 49.730469 178.476562 49.792969 178.476562 49.980469 C 178.476562 50.269531 178.703125 50.457031 178.914062 50.457031 C 179.183594 50.457031 179.414062 50.207031 179.414062 49.9375 C 179.414062 49.5 178.976562 49.1875 178.390625 49.1875 C 177.664062 49.1875 177.164062 49.605469 176.808594 50.125 C 176.414062 50.6875 176.203125 51.355469 175.933594 52.1875 Z M 174.828125 52.1875 "/>
<path style="fill:none;stroke-width:1;stroke-linecap:round;stroke-linejoin:round;stroke:rgb(0%,0%,0%);stroke-opacity:1;stroke-miterlimit:10;" d="M 26.000977 39 L 45.102539 39 " transform="matrix(1.333333,0,0,1.333333,-12,-36)"/>
<path style="fill:none;stroke-width:1;stroke-linecap:butt;stroke-linejoin:miter;stroke:rgb(0%,0%,0%);stroke-opacity:1;stroke-miterlimit:10;" d="M 49.101562 39 L 45.102539 39 M 45.102539 37.5 L 49.101562 39 L 45.102539 40.5 " transform="matrix(1.333333,0,0,1.333333,-12,-36)"/>
<path style="fill:none;stroke-width:1;stroke-linecap:round;stroke-linejoin:round;stroke:rgb(0%,0%,0%);stroke-opacity:1;stroke-miterlimit:10;" d="M 24.530273 63.37793 L 47.651367 47.027344 " transform="matrix(1.333333,0,0,1.333333,-12,-36)"/>
<path style="fill:none;stroke-width:1;stroke-linecap:butt;stroke-linejoin:miter;stroke:rgb(0%,0%,0%);stroke-opacity:1;stroke-miterlimit:10;" d="M 50.917969 44.71875 L 47.651367 47.027344 M 46.78418 45.805664 L 50.917969 44.71875 L 48.515625 48.254883 " transform="matrix(1.333333,0,0,1.333333,-12,-36)"/>
<path style="fill:none;stroke-width:1;stroke-linecap:round;stroke-linejoin:round;stroke:rgb(0%,0%,0%);stroke-opacity:1;stroke-miterlimit:10;" d="M 26.000977 68.000977 L 45.102539 68.000977 " transform="matrix(1.333333,0,0,1.333333,-12,-36)"/>
<path style="fill:none;stroke-width:1;stroke-linecap:butt;stroke-linejoin:miter;stroke:rgb(0%,0%,0%);stroke-opacity:1;stroke-miterlimit:10;" d="M 49.101562 68.000977 L 45.102539 68.000977 M 45.102539 66.500977 L 49.101562 68.000977 L 45.102539 69.500977 " transform="matrix(1.333333,0,0,1.333333,-12,-36)"/>
<path style="fill:none;stroke-width:1;stroke-linecap:round;stroke-linejoin:round;stroke:rgb(0%,0%,0%);stroke-opacity:1;stroke-miterlimit:10;" d="M 108 68.000977 L 127.101562 68.000977 " transform="matrix(1.333333,0,0,1.333333,-12,-36)"/>
<path style="fill:none;stroke-width:1;stroke-linecap:butt;stroke-linejoin:miter;stroke:rgb(0%,0%,0%);stroke-opacity:1;stroke-miterlimit:10;" d="M 131.100586 68.000977 L 127.101562 68.000977 M 127.101562 66.500977 L 131.100586 68.000977 L 127.101562 69.500977 " transform="matrix(1.333333,0,0,1.333333,-12,-36)"/>
<path style="fill:none;stroke-width:1;stroke-linecap:round;stroke-linejoin:round;stroke:rgb(0%,0%,0%);stroke-opacity:1;stroke-miterlimit:10;" d="M 66.999023 39 L 86.100586 39 " transform="matrix(1.333333,0,0,1.333333,-12,-36)"/>
<path style="fill:none;stroke-width:1;stroke-linecap:butt;stroke-linejoin:miter;stroke:rgb(0%,0%,0%);stroke-opacity:1;stroke-miterlimit:10;" d="M 90.102539 39 L 86.100586 39 M 86.100586 37.5 L 90.102539 39 L 86.100586 40.5 " transform="matrix(1.333333,0,0,1.333333,-12,-36)"/>
<path style="fill:none;stroke-width:1;stroke-linecap:round;stroke-linejoin:round;stroke:rgb(0%,0%,0%);stroke-opacity:1;stroke-miterlimit:10;" d="M 106.532227 43.620117 L 129.65332 59.973633 " transform="matrix(1.333333,0,0,1.333333,-12,-36)"/>
<path style="fill:none;stroke-width:1;stroke-linecap:butt;stroke-linejoin:miter;stroke:rgb(0%,0%,0%);stroke-opacity:1;stroke-miterlimit:10;" d="M 132.916992 62.282227 L 129.65332 59.973633 M 130.514648 58.746094 L 132.916992 62.282227 L 128.786133 61.195312 " transform="matrix(1.333333,0,0,1.333333,-12,-36)"/>
<path style="fill:none;stroke-width:1;stroke-linecap:round;stroke-linejoin:round;stroke:rgb(0%,0%,0%);stroke-opacity:1;stroke-miterlimit:10;" d="M 66.999023 67.901367 L 86.847656 67.661133 " transform="matrix(1.333333,0,0,1.333333,-12,-36)"/>
<path style="fill:none;stroke-width:1;stroke-linecap:butt;stroke-linejoin:miter;stroke:rgb(0%,0%,0%);stroke-opacity:1;stroke-miterlimit:10;" d="M 90.84668 67.614258 L 86.847656 67.661133 M 86.833008 66.161133 L 90.84668 67.614258 L 86.868164 69.161133 " transform="matrix(1.333333,0,0,1.333333,-12,-36)"/>
<path style="fill:none;stroke-width:1;stroke-linecap:round;stroke-linejoin:round;stroke:rgb(0%,0%,0%);stroke-opacity:1;stroke-miterlimit:10;" d="M 66.541992 41.668945 L 127.895508 63.363281 " transform="matrix(1.333333,0,0,1.333333,-12,-36)"/>
<path style="fill:none;stroke-width:1;stroke-linecap:butt;stroke-linejoin:miter;stroke:rgb(0%,0%,0%);stroke-opacity:1;stroke-miterlimit:10;" d="M 131.663086 64.699219 L 127.895508 63.363281 M 128.393555 61.948242 L 131.663086 64.699219 L 127.394531 64.77832 " transform="matrix(1.333333,0,0,1.333333,-12,-36)"/>
</g>
</svg>
