<?xml version="1.0" encoding="UTF-8"?>
<svg xmlns="http://www.w3.org/2000/svg" xmlns:xlink="http://www.w3.org/1999/xlink" width="188" height="146.666667" viewBox="0 0 188 146.666667" version="1.1">
<g id="surface1">
<path style="fill-rule:nonzero;fill:rgb(69.803923%,85.09804%,100%);fill-opacity:1;stroke-width:1;stroke-linecap:round;stroke-linejoin:round;stroke:rgb(0%,0%,0%);stroke-opacity:1;stroke-miterlimit:10;" d="M 23.657227 4.342773 C 26.780273 7.46875 26.780273 12.53125 23.657227 15.657227 C 20.53125 18.780273 15.46875 18.780273 12.342773 15.657227 C 9.219727 12.53125 9.219727 7.46875 12.342773 4.342773 C 15.46875 1.219727 20.53125 1.219727 23.657227 4.342773 " transform="matrix(1.333333,0,0,1.333333,-12,2.666667)"/>
<path style=" stroke:none;fill-rule:nonzero;fill:rgb(0%,0%,0%);fill-opacity:1;" d="M 12.828125 13.5625 C 12.828125 13.417969 12.808594 13.394531 12.746094 13.394531 C 12.683594 13.394531 12.640625 13.417969 12.578125 13.5 L 10.265625 17.144531 C 10.222656 16.105469 10.058594 14.605469 9.890625 13.792969 C 9.808594 13.394531 9.785156 13.375 9.660156 13.375 C 9.578125 13.375 9.472656 13.417969 9.308594 13.457031 C 8.953125 13.5625 8.535156 13.605469 8.183594 13.667969 L 8.183594 13.8125 L 8.515625 13.8125 C 8.847656 13.8125 8.972656 13.875 9.078125 14.3125 C 9.222656 14.894531 9.347656 16.1875 9.390625 17.230469 L 9.453125 18.3125 C 9.472656 18.792969 9.496094 18.875 9.597656 18.875 C 9.746094 18.875 9.933594 18.582031 10.371094 17.75 C 10.597656 17.3125 10.808594 16.917969 11.035156 16.5625 L 12.097656 14.75 L 12.453125 18.457031 C 12.472656 18.769531 12.496094 18.875 12.578125 18.875 C 12.683594 18.875 12.785156 18.769531 13.121094 18.375 L 13.222656 18.230469 C 14.890625 16.207031 15.765625 14.8125 15.765625 14.042969 C 15.765625 13.667969 15.515625 13.375 15.140625 13.375 C 14.890625 13.375 14.683594 13.5625 14.683594 13.75 C 14.683594 13.917969 14.746094 14.0625 14.933594 14.230469 C 15.121094 14.417969 15.203125 14.519531 15.203125 14.667969 C 15.203125 15.167969 14.785156 15.8125 13.222656 17.769531 Z M 12.828125 13.5625 "/>
<path style="fill-rule:nonzero;fill:rgb(69.803923%,85.09804%,100%);fill-opacity:1;stroke-width:1;stroke-linecap:round;stroke-linejoin:round;stroke:rgb(0%,0%,0%);stroke-opacity:1;stroke-miterlimit:10;" d="M 23.657227 33.34375 C 26.780273 36.469727 26.780273 41.532227 23.657227 44.655273 C 20.53125 47.78125 15.46875 47.78125 12.342773 44.655273 C 9.219727 41.532227 9.219727 36.469727 12.342773 33.34375 C 15.46875 30.217773 20.53125 30.217773 23.657227 33.34375 " transform="matrix(1.333333,0,0,1.333333,-12,2.666667)"/>
<path style=" stroke:none;fill-rule:nonzero;fill:rgb(0%,0%,0%);fill-opacity:1;" d="M 12.25 53.082031 C 12.082031 52.25 11.9375 52.042969 11.644531 52.042969 C 11.355469 52.042969 10.957031 52.125 10.230469 52.394531 L 10.105469 52.4375 L 10.144531 52.625 L 10.355469 52.5625 C 10.582031 52.5 10.730469 52.480469 10.8125 52.480469 C 11.125 52.480469 11.207031 52.582031 11.375 53.292969 L 11.707031 54.792969 L 10.730469 56.1875 C 10.480469 56.542969 10.25 56.769531 10.105469 56.769531 C 10.042969 56.769531 9.917969 56.730469 9.792969 56.667969 C 9.644531 56.582031 9.519531 56.519531 9.417969 56.519531 C 9.1875 56.519531 9 56.730469 9 56.957031 C 9 57.269531 9.230469 57.457031 9.605469 57.457031 C 9.980469 57.457031 10.230469 57.355469 10.75 56.644531 L 11.8125 55.230469 L 12.144531 56.644531 C 12.292969 57.25 12.480469 57.457031 12.855469 57.457031 C 13.3125 57.457031 13.625 57.1875 14.332031 56.105469 L 14.144531 55.980469 C 14.042969 56.105469 14 56.1875 13.894531 56.332031 C 13.625 56.6875 13.480469 56.8125 13.332031 56.8125 C 13.167969 56.8125 13.0625 56.644531 12.980469 56.3125 L 12.582031 54.707031 C 12.519531 54.417969 12.480469 54.25 12.480469 54.167969 C 13.019531 53.25 13.457031 52.707031 13.667969 52.707031 C 13.957031 52.707031 14.0625 52.917969 14.292969 52.917969 C 14.519531 52.917969 14.6875 52.730469 14.6875 52.480469 C 14.6875 52.230469 14.5 52.042969 14.207031 52.042969 C 13.6875 52.042969 13.230469 52.480469 12.394531 53.75 Z M 12.25 53.082031 "/>
<path style="fill-rule:nonzero;fill:rgb(69.803923%,85.09804%,100%);fill-opacity:1;stroke-width:1;stroke-linecap:round;stroke-linejoin:round;stroke:rgb(0%,0%,0%);stroke-opacity:1;stroke-miterlimit:10;" d="M 23.657227 62.344727 C 26.780273 65.467773 26.780273 70.530273 23.657227 73.65625 C 20.53125 76.782227 15.46875 76.782227 12.342773 73.65625 C 9.219727 70.530273 9.219727 65.467773 12.342773 62.344727 C 15.46875 59.21875 20.53125 59.21875 23.657227 62.344727 " transform="matrix(1.333333,0,0,1.333333,-12,2.666667)"/>
<path style=" stroke:none;fill-rule:nonzero;fill:rgb(0%,0%,0%);fill-opacity:1;" d="M 12.25 93.769531 C 12.042969 92.707031 11.417969 90.707031 11.230469 90.707031 L 11.1875 90.707031 C 10.542969 90.8125 10.144531 90.875 9.894531 90.917969 C 9.769531 90.957031 9.644531 90.980469 9.519531 91 L 9.519531 91.207031 C 9.644531 91.167969 9.75 91.144531 9.875 91.144531 C 10.375 91.144531 10.582031 91.332031 10.8125 91.917969 C 11.125 92.730469 11.792969 95.417969 11.792969 95.894531 C 11.792969 96.042969 11.75 96.1875 11.667969 96.332031 C 11.582031 96.480469 11.042969 97.1875 10.8125 97.417969 C 10.542969 97.707031 10.394531 97.8125 10.25 97.8125 C 9.9375 97.8125 9.9375 97.480469 9.519531 97.480469 C 9.25 97.480469 9.042969 97.6875 9.042969 97.957031 C 9.042969 98.269531 9.292969 98.480469 9.667969 98.480469 C 10.332031 98.480469 11.625 97.082031 12.875 95.019531 C 13.875 93.375 14.4375 92.042969 14.4375 91.375 C 14.4375 91 14.1875 90.707031 13.8125 90.707031 C 13.542969 90.707031 13.332031 90.894531 13.332031 91.144531 C 13.332031 91.355469 13.417969 91.457031 13.644531 91.625 C 13.875 91.769531 13.957031 91.832031 13.957031 92 C 13.957031 92.542969 13.519531 93.394531 12.5 95.082031 Z M 12.25 93.769531 "/>
<path style="fill-rule:nonzero;fill:rgb(69.803923%,85.09804%,100%);fill-opacity:1;stroke-width:1;stroke-linecap:round;stroke-linejoin:round;stroke:rgb(0%,0%,0%);stroke-opacity:1;stroke-miterlimit:10;" d="M 23.657227 91.342773 C 26.780273 94.46875 26.780273 99.53125 23.657227 102.657227 C 20.53125 105.780273 15.46875 105.780273 12.342773 102.657227 C 9.219727 99.53125 9.219727 94.46875 12.342773 91.342773 C 15.46875 88.219727 20.53125 88.219727 23.657227 91.342773 " transform="matrix(1.333333,0,0,1.333333,-12,2.666667)"/>
<path style=" stroke:none;fill-rule:nonzero;fill:rgb(0%,0%,0%);fill-opacity:1;" d="M 14.226562 129.667969 L 14.226562 129.519531 L 10.828125 129.519531 L 10.433594 130.917969 L 10.640625 130.980469 C 10.871094 130.355469 11.101562 130.25 11.726562 130.25 L 13.351562 130.25 L 9.640625 134.707031 L 9.746094 134.8125 C 9.933594 134.667969 10.101562 134.605469 10.289062 134.605469 C 10.601562 134.605469 10.976562 134.769531 11.539062 135.105469 C 12.140625 135.480469 12.558594 135.644531 12.914062 135.644531 C 13.578125 135.644531 14.015625 135.207031 14.015625 134.730469 C 14.015625 134.457031 13.851562 134.292969 13.601562 134.292969 C 13.414062 134.292969 13.203125 134.480469 13.203125 134.6875 C 13.203125 134.792969 13.226562 134.875 13.308594 135.019531 C 13.328125 135.105469 13.351562 135.167969 13.351562 135.207031 C 13.351562 135.3125 13.226562 135.394531 13.039062 135.394531 C 12.726562 135.394531 12.515625 135.25 12.203125 134.792969 C 11.703125 134.082031 11.453125 133.9375 10.746094 133.792969 Z M 14.226562 129.667969 "/>
<path style="fill-rule:nonzero;fill:rgb(69.803923%,85.09804%,100%);fill-opacity:1;stroke-width:1;stroke-linecap:round;stroke-linejoin:round;stroke:rgb(0%,0%,0%);stroke-opacity:1;stroke-miterlimit:10;" d="M 64.655273 33.34375 C 67.78125 36.469727 67.78125 41.532227 64.655273 44.655273 C 61.532227 47.78125 56.469727 47.78125 53.34375 44.655273 C 50.217773 41.532227 50.217773 36.469727 53.34375 33.34375 C 56.469727 30.217773 61.532227 30.217773 64.655273 33.34375 " transform="matrix(1.333333,0,0,1.333333,-12,2.666667)"/>
<path style=" stroke:none;fill-rule:nonzero;fill:rgb(0%,0%,0%);fill-opacity:1;" d="M 69.21875 56 L 68.886719 56.355469 C 68.53125 56.75 68.367188 56.832031 68.261719 56.832031 C 68.179688 56.832031 68.09375 56.769531 68.09375 56.6875 C 68.09375 56.4375 68.59375 54.375 69.15625 52.332031 C 69.199219 52.207031 69.21875 52.1875 69.242188 52.082031 L 69.15625 52.042969 L 68.429688 52.125 L 68.386719 52.167969 L 68.261719 52.730469 C 68.15625 52.292969 67.804688 52.042969 67.304688 52.042969 C 65.699219 52.042969 63.867188 54.207031 63.867188 56.082031 C 63.867188 56.980469 64.386719 57.457031 65.054688 57.457031 C 65.90625 57.457031 66.59375 56.9375 67.492188 55.582031 C 67.242188 56.5625 67.21875 56.667969 67.21875 56.957031 C 67.21875 57.3125 67.367188 57.457031 67.699219 57.457031 C 68.179688 57.457031 68.46875 57.230469 69.367188 56.125 Z M 68.03125 53 C 68.03125 53.855469 67.679688 54.875 67.117188 55.707031 C 66.761719 56.207031 66.199219 56.875 65.59375 56.875 C 65.15625 56.875 64.867188 56.644531 64.867188 55.980469 C 64.867188 55.230469 65.28125 54.167969 65.804688 53.417969 C 66.304688 52.6875 66.824219 52.3125 67.367188 52.3125 C 67.78125 52.3125 68.03125 52.582031 68.03125 53 Z M 68.03125 53 "/>
<path style="fill-rule:nonzero;fill:rgb(69.803923%,85.09804%,100%);fill-opacity:1;stroke-width:1;stroke-linecap:round;stroke-linejoin:round;stroke:rgb(0%,0%,0%);stroke-opacity:1;stroke-miterlimit:10;" d="M 64.655273 62.344727 C 67.78125 65.467773 67.78125 70.530273 64.655273 73.65625 C 61.532227 76.782227 56.469727 76.782227 53.34375 73.65625 C 50.217773 70.530273 50.217773 65.467773 53.34375 62.344727 C 56.469727 59.21875 61.532227 59.21875 64.655273 62.344727 " transform="matrix(1.333333,0,0,1.333333,-12,2.666667)"/>
<path style=" stroke:none;fill-rule:nonzero;fill:rgb(0%,0%,0%);fill-opacity:1;" d="M 65.621094 92.519531 L 66.621094 88.855469 L 66.871094 87.855469 L 66.808594 87.8125 C 66.226562 87.917969 65.789062 87.980469 64.976562 88.082031 L 64.976562 88.292969 C 65.683594 88.3125 65.746094 88.3125 65.746094 88.582031 C 65.746094 88.6875 65.707031 88.855469 65.644531 89.144531 L 63.933594 95.417969 L 63.933594 95.5 C 63.933594 95.855469 64.808594 96.125 65.496094 96.125 C 67.351562 96.125 69.332031 94.042969 69.332031 92.144531 C 69.332031 91.230469 68.746094 90.707031 67.957031 90.707031 C 67.101562 90.707031 66.457031 91.167969 65.621094 92.519531 Z M 68.308594 92.332031 C 68.308594 93.207031 67.726562 94.394531 66.996094 95.144531 C 66.558594 95.605469 66.039062 95.855469 65.519531 95.855469 C 65.144531 95.855469 64.976562 95.730469 64.976562 95.457031 C 64.976562 94.730469 65.308594 93.5625 65.832031 92.667969 C 66.351562 91.792969 66.914062 91.292969 67.476562 91.292969 C 68.019531 91.292969 68.308594 91.605469 68.308594 92.332031 Z M 68.308594 92.332031 "/>
<path style="fill-rule:nonzero;fill:rgb(69.803923%,85.09804%,100%);fill-opacity:1;stroke-width:1;stroke-linecap:round;stroke-linejoin:round;stroke:rgb(0%,0%,0%);stroke-opacity:1;stroke-miterlimit:10;" d="M 105.65625 33.34375 C 108.782227 36.469727 108.782227 41.532227 105.65625 44.655273 C 102.530273 47.78125 97.467773 47.78125 94.344727 44.655273 C 91.21875 41.532227 91.21875 36.469727 94.344727 33.34375 C 97.467773 30.217773 102.530273 30.217773 105.65625 33.34375 " transform="matrix(1.333333,0,0,1.333333,-12,2.666667)"/>
<path style=" stroke:none;fill-rule:nonzero;fill:rgb(0%,0%,0%);fill-opacity:1;" d="M 123.871094 55.894531 C 123.246094 56.707031 123.058594 56.875 122.871094 56.875 C 122.789062 56.875 122.726562 56.8125 122.726562 56.667969 C 122.726562 56.519531 122.894531 55.957031 122.957031 55.730469 L 123.914062 52.144531 L 123.019531 52.144531 C 122.433594 53.75 122.269531 54.207031 121.707031 55.0625 C 120.957031 56.1875 120.414062 56.832031 119.996094 56.832031 C 119.808594 56.832031 119.769531 56.707031 119.769531 56.519531 C 119.769531 56.480469 119.789062 56.375 119.789062 56.332031 L 120.871094 52.082031 L 120.808594 52.042969 C 120.121094 52.1875 119.707031 52.292969 119.019531 52.375 L 119.019531 52.542969 C 119.476562 52.542969 119.496094 52.542969 119.621094 52.605469 C 119.683594 52.644531 119.746094 52.730469 119.746094 52.8125 C 119.746094 52.917969 119.683594 53.230469 119.582031 53.625 L 119.164062 55.292969 C 118.933594 56.167969 118.832031 56.605469 118.832031 56.832031 C 118.832031 57.269531 119.058594 57.457031 119.476562 57.457031 C 120.332031 57.457031 120.914062 56.832031 122.332031 54.5 C 121.957031 55.792969 121.789062 56.605469 121.789062 56.875 C 121.789062 57.230469 122.019531 57.4375 122.371094 57.4375 C 122.933594 57.4375 123.246094 57.207031 124.039062 56.019531 Z M 123.871094 55.894531 "/>
<path style="fill-rule:nonzero;fill:rgb(69.803923%,85.09804%,100%);fill-opacity:1;stroke-width:1;stroke-linecap:round;stroke-linejoin:round;stroke:rgb(0%,0%,0%);stroke-opacity:1;stroke-miterlimit:10;" d="M 105.65625 62.344727 C 108.782227 65.467773 108.782227 70.530273 105.65625 73.65625 C 102.530273 76.782227 97.467773 76.782227 94.344727 73.65625 C 91.21875 70.530273 91.21875 65.467773 94.344727 62.344727 C 97.467773 59.21875 102.530273 59.21875 105.65625 62.344727 " transform="matrix(1.333333,0,0,1.333333,-12,2.666667)"/>
<path style=" stroke:none;fill-rule:nonzero;fill:rgb(0%,0%,0%);fill-opacity:1;" d="M 121.144531 95.167969 C 121.082031 93.542969 121 92.875 120.855469 92.082031 C 120.605469 90.769531 120.605469 90.707031 120.5 90.707031 C 120.4375 90.707031 120.355469 90.730469 120.25 90.75 C 119.875 90.832031 119.4375 90.917969 118.917969 91 L 118.917969 91.167969 C 119.042969 91.144531 119.167969 91.144531 119.269531 91.144531 C 119.730469 91.144531 119.855469 91.355469 120.019531 92.269531 C 120.167969 93.1875 120.292969 94.769531 120.292969 95.605469 L 120.292969 95.894531 C 120.292969 96.105469 120.332031 96.207031 120.417969 96.207031 C 120.605469 96.207031 120.9375 95.8125 121.605469 95.105469 C 121.8125 94.875 122.480469 94.125 123.019531 93.269531 C 123.4375 92.625 123.769531 91.9375 123.769531 91.417969 C 123.769531 91.082031 123.5 90.707031 123.105469 90.707031 C 122.855469 90.707031 122.644531 90.855469 122.644531 91.125 C 122.644531 91.3125 122.730469 91.457031 122.957031 91.644531 C 123.105469 91.792969 123.167969 91.875 123.167969 92 C 123.167969 92.5625 122.394531 93.894531 121.519531 94.769531 Z M 121.144531 95.167969 "/>
<path style="fill-rule:nonzero;fill:rgb(69.803923%,85.09804%,100%);fill-opacity:1;stroke-width:1;stroke-linecap:round;stroke-linejoin:round;stroke:rgb(0%,0%,0%);stroke-opacity:1;stroke-miterlimit:10;" d="M 146.657227 48.34375 C 149.780273 51.469727 149.780273 56.532227 146.657227 59.655273 C 143.53125 62.78125 138.46875 62.78125 135.342773 59.655273 C 132.219727 56.532227 132.219727 51.469727 135.342773 48.34375 C 138.46875 45.217773 143.53125 45.217773 146.657227 48.34375 " transform="matrix(1.333333,0,0,1.333333,-12,2.666667)"/>
<path style=" stroke:none;fill-rule:nonzero;fill:rgb(0%,0%,0%);fill-opacity:1;" d="M 174.828125 72.1875 L 174.746094 72.582031 L 175.828125 72.582031 L 174.765625 77.625 C 174.496094 78.917969 174.121094 79.5625 173.601562 79.5625 C 173.476562 79.5625 173.371094 79.480469 173.371094 79.375 C 173.371094 79.25 173.476562 79.1875 173.476562 79.019531 C 173.476562 78.769531 173.289062 78.582031 173.015625 78.582031 C 172.765625 78.582031 172.558594 78.8125 172.558594 79.082031 C 172.558594 79.5 172.976562 79.8125 173.515625 79.8125 C 174.601562 79.8125 175.414062 78.644531 175.914062 76.417969 L 176.789062 72.582031 L 178.078125 72.582031 L 178.140625 72.1875 L 176.871094 72.1875 C 177.203125 70.292969 177.664062 69.457031 178.328125 69.457031 C 178.496094 69.457031 178.578125 69.519531 178.578125 69.625 C 178.578125 69.730469 178.476562 69.792969 178.476562 69.980469 C 178.476562 70.269531 178.703125 70.457031 178.914062 70.457031 C 179.183594 70.457031 179.414062 70.207031 179.414062 69.9375 C 179.414062 69.5 178.976562 69.1875 178.390625 69.1875 C 177.664062 69.1875 177.164062 69.605469 176.808594 70.125 C 176.414062 70.6875 176.203125 71.355469 175.933594 72.1875 Z M 174.828125 72.1875 "/>
<path style="fill:none;stroke-width:1;stroke-linecap:round;stroke-linejoin:round;stroke:rgb(0%,0%,0%);stroke-opacity:1;stroke-miterlimit:10;" d="M 24.530273 14.620117 L 47.651367 30.973633 " transform="matrix(1.333333,0,0,1.333333,-12,2.666667)"/>
<path style="fill:none;stroke-width:1;stroke-linecap:butt;stroke-linejoin:miter;stroke:rgb(0%,0%,0%);stroke-opacity:1;stroke-miterlimit:10;" d="M 50.917969 33.282227 L 47.651367 30.973633 M 48.515625 29.746094 L 50.917969 33.282227 L 46.78418 32.195312 " transform="matrix(1.333333,0,0,1.333333,-12,2.666667)"/>
<path style="fill:none;stroke-width:1;stroke-linecap:round;stroke-linejoin:round;stroke:rgb(0%,0%,0%);stroke-opacity:1;stroke-miterlimit:10;" d="M 26.000977 39.000977 L 45.102539 39.000977 " transform="matrix(1.333333,0,0,1.333333,-12,2.666667)"/>
<path style="fill:none;stroke-width:1;stroke-linecap:butt;stroke-linejoin:miter;stroke:rgb(0%,0%,0%);stroke-opacity:1;stroke-miterlimit:10;" d="M 49.101562 39.000977 L 45.102539 39.000977 M 45.102539 37.500977 L 49.101562 39.000977 L 45.102539 40.500977 " transform="matrix(1.333333,0,0,1.333333,-12,2.666667)"/>
<path style="fill:none;stroke-width:1;stroke-linecap:round;stroke-linejoin:round;stroke:rgb(0%,0%,0%);stroke-opacity:1;stroke-miterlimit:10;" d="M 24.530273 63.378906 L 47.651367 47.02832 " transform="matrix(1.333333,0,0,1.333333,-12,2.666667)"/>
<path style="fill:none;stroke-width:1;stroke-linecap:butt;stroke-linejoin:miter;stroke:rgb(0%,0%,0%);stroke-opacity:1;stroke-miterlimit:10;" d="M 50.917969 44.719727 L 47.651367 47.02832 M 46.78418 45.803711 L 50.917969 44.719727 L 48.515625 48.25293 " transform="matrix(1.333333,0,0,1.333333,-12,2.666667)"/>
<path style="fill:none;stroke-width:1;stroke-linecap:round;stroke-linejoin:round;stroke:rgb(0%,0%,0%);stroke-opacity:1;stroke-miterlimit:10;" d="M 22.617188 90.463867 L 50.976562 50.350586 " transform="matrix(1.333333,0,0,1.333333,-12,2.666667)"/>
<path style="fill:none;stroke-width:1;stroke-linecap:butt;stroke-linejoin:miter;stroke:rgb(0%,0%,0%);stroke-opacity:1;stroke-miterlimit:10;" d="M 53.285156 47.086914 L 50.976562 50.350586 M 49.749023 49.483398 L 53.285156 47.086914 L 52.198242 51.217773 " transform="matrix(1.333333,0,0,1.333333,-12,2.666667)"/>
<path style="fill:none;stroke-width:1;stroke-linecap:round;stroke-linejoin:round;stroke:rgb(0%,0%,0%);stroke-opacity:1;stroke-miterlimit:10;" d="M 22.617188 16.536133 L 50.976562 56.649414 " transform="matrix(1.333333,0,0,1.333333,-12,2.666667)"/>
<path style="fill:none;stroke-width:1;stroke-linecap:butt;stroke-linejoin:miter;stroke:rgb(0%,0%,0%);stroke-opacity:1;stroke-miterlimit:10;" d="M 53.285156 59.913086 L 50.976562 56.649414 M 52.198242 55.782227 L 53.285156 59.913086 L 49.749023 57.516602 " transform="matrix(1.333333,0,0,1.333333,-12,2.666667)"/>
<path style="fill:none;stroke-width:1;stroke-linecap:round;stroke-linejoin:round;stroke:rgb(0%,0%,0%);stroke-opacity:1;stroke-miterlimit:10;" d="M 24.530273 43.621094 L 47.651367 59.97168 " transform="matrix(1.333333,0,0,1.333333,-12,2.666667)"/>
<path style="fill:none;stroke-width:1;stroke-linecap:butt;stroke-linejoin:miter;stroke:rgb(0%,0%,0%);stroke-opacity:1;stroke-miterlimit:10;" d="M 50.917969 62.280273 L 47.651367 59.97168 M 48.515625 58.74707 L 50.917969 62.280273 L 46.78418 61.196289 " transform="matrix(1.333333,0,0,1.333333,-12,2.666667)"/>
<path style="fill:none;stroke-width:1;stroke-linecap:round;stroke-linejoin:round;stroke:rgb(0%,0%,0%);stroke-opacity:1;stroke-miterlimit:10;" d="M 26.000977 67.999023 L 45.102539 67.999023 " transform="matrix(1.333333,0,0,1.333333,-12,2.666667)"/>
<path style="fill:none;stroke-width:1;stroke-linecap:butt;stroke-linejoin:miter;stroke:rgb(0%,0%,0%);stroke-opacity:1;stroke-miterlimit:10;" d="M 49.101562 67.999023 L 45.102539 67.999023 M 45.102539 66.499023 L 49.101562 67.999023 L 45.102539 69.499023 " transform="matrix(1.333333,0,0,1.333333,-12,2.666667)"/>
<path style="fill:none;stroke-width:1;stroke-linecap:round;stroke-linejoin:round;stroke:rgb(0%,0%,0%);stroke-opacity:1;stroke-miterlimit:10;" d="M 24.530273 92.379883 L 47.651367 76.026367 " transform="matrix(1.333333,0,0,1.333333,-12,2.666667)"/>
<path style="fill:none;stroke-width:1;stroke-linecap:butt;stroke-linejoin:miter;stroke:rgb(0%,0%,0%);stroke-opacity:1;stroke-miterlimit:10;" d="M 50.917969 73.717773 L 47.651367 76.026367 M 46.78418 74.804688 L 50.917969 73.717773 L 48.515625 77.253906 " transform="matrix(1.333333,0,0,1.333333,-12,2.666667)"/>
<path style="fill:none;stroke-width:1;stroke-linecap:round;stroke-linejoin:round;stroke:rgb(0%,0%,0%);stroke-opacity:1;stroke-miterlimit:10;" d="M 65.53125 63.378906 L 88.652344 47.02832 " transform="matrix(1.333333,0,0,1.333333,-12,2.666667)"/>
<path style="fill:none;stroke-width:1;stroke-linecap:butt;stroke-linejoin:miter;stroke:rgb(0%,0%,0%);stroke-opacity:1;stroke-miterlimit:10;" d="M 91.918945 44.719727 L 88.652344 47.02832 M 87.785156 45.803711 L 91.918945 44.719727 L 89.516602 48.25293 " transform="matrix(1.333333,0,0,1.333333,-12,2.666667)"/>
<path style="fill:none;stroke-width:1;stroke-linecap:round;stroke-linejoin:round;stroke:rgb(0%,0%,0%);stroke-opacity:1;stroke-miterlimit:10;" d="M 107.575195 65.415039 L 127.842773 58.492188 " transform="matrix(1.333333,0,0,1.333333,-12,2.666667)"/>
<path style="fill:none;stroke-width:1;stroke-linecap:butt;stroke-linejoin:miter;stroke:rgb(0%,0%,0%);stroke-opacity:1;stroke-miterlimit:10;" d="M 131.62793 57.200195 L 127.842773 58.492188 M 127.359375 57.074219 L 131.62793 57.200195 L 128.329102 59.910156 " transform="matrix(1.333333,0,0,1.333333,-12,2.666667)"/>
<path style="fill:none;stroke-width:1;stroke-linecap:round;stroke-linejoin:round;stroke:rgb(0%,0%,0%);stroke-opacity:1;stroke-miterlimit:10;" d="M 66.999023 39.000977 L 86.100586 39.000977 " transform="matrix(1.333333,0,0,1.333333,-12,2.666667)"/>
<path style="fill:none;stroke-width:1;stroke-linecap:butt;stroke-linejoin:miter;stroke:rgb(0%,0%,0%);stroke-opacity:1;stroke-miterlimit:10;" d="M 90.102539 39.000977 L 86.100586 39.000977 M 86.100586 37.500977 L 90.102539 39.000977 L 86.100586 40.500977 " transform="matrix(1.333333,0,0,1.333333,-12,2.666667)"/>
<path style="fill:none;stroke-width:1;stroke-linecap:round;stroke-linejoin:round;stroke:rgb(0%,0%,0%);stroke-opacity:1;stroke-miterlimit:10;" d="M 65.53125 43.621094 L 88.652344 59.97168 " transform="matrix(1.333333,0,0,1.333333,-12,2.666667)"/>
<path style="fill:none;stroke-width:1;stroke-linecap:butt;stroke-linejoin:miter;stroke:rgb(0%,0%,0%);stroke-opacity:1;stroke-miterlimit:10;" d="M 91.918945 62.280273 L 88.652344 59.97168 M 89.516602 58.74707 L 91.918945 62.280273 L 87.785156 61.196289 " transform="matrix(1.333333,0,0,1.333333,-12,2.666667)"/>
<path style="fill:none;stroke-width:1;stroke-linecap:round;stroke-linejoin:round;stroke:rgb(0%,0%,0%);stroke-opacity:1;stroke-miterlimit:10;" d="M 107.516602 41.749023 L 127.945312 49.222656 " transform="matrix(1.333333,0,0,1.333333,-12,2.666667)"/>
<path style="fill:none;stroke-width:1;stroke-linecap:butt;stroke-linejoin:miter;stroke:rgb(0%,0%,0%);stroke-opacity:1;stroke-miterlimit:10;" d="M 131.698242 50.59668 L 127.945312 49.222656 M 128.460938 47.816406 L 131.698242 50.59668 L 127.429688 50.631836 " transform="matrix(1.333333,0,0,1.333333,-12,2.666667)"/>
<path style="fill:none;stroke-width:1;stroke-linecap:round;stroke-linejoin:round;stroke:rgb(0%,0%,0%);stroke-opacity:1;stroke-miterlimit:10;" d="M 66.999023 67.902344 L 87.102539 67.65625 " transform="matrix(1.333333,0,0,1.333333,-12,2.666667)"/>
<path style="fill:none;stroke-width:1;stroke-linecap:butt;stroke-linejoin:miter;stroke:rgb(0%,0%,0%);stroke-opacity:1;stroke-miterlimit:10;" d="M 91.101562 67.609375 L 87.102539 67.65625 M 87.082031 66.15625 L 91.101562 67.609375 L 87.117188 69.15625 " transform="matrix(1.333333,0,0,1.333333,-12,2.666667)"/>
</g>
</svg>
